/* XPM */
static char *door2[] = {
/* columns rows colors chars-per-pixel */
"81 81 251 2 ",
"   c #000001",
".  c #01010B",
"X  c #0B080B",
"o  c #130E0E",
"O  c #030113",
"+  c #0A0914",
"@  c #05011A",
"#  c #0B051B",
"$  c #0D0A1D",
"%  c #120D17",
"&  c #151214",
"*  c #13131C",
"=  c #1A171A",
"-  c #231B19",
";  c #2D2618",
":  c #0C0322",
">  c #0E0825",
",  c #120C24",
"<  c #11062B",
"1  c #130D2B",
"2  c #151324",
"3  c #1A1624",
"4  c #161B22",
"5  c #1D1B24",
"6  c #16112B",
"7  c #1A152D",
"8  c #1C1A2B",
"9  c #160B36",
"0  c #161130",
"q  c #1A1533",
"w  c #1D1934",
"e  c #1C153B",
"r  c #1E193B",
"t  c #231D28",
"y  c #221D33",
"u  c #221B3C",
"i  c #2D1E39",
"p  c #1C2327",
"a  c #23222B",
"s  c #292529",
"d  c #2C2434",
"f  c #292837",
"g  c #25213C",
"h  c #2A243C",
"j  c #352B3A",
"k  c #2F3030",
"l  c #3A353B",
"z  c #44393A",
"x  c #5C4C2F",
"c  c #1A0F42",
"v  c #1D1344",
"b  c #241D43",
"n  c #261A4A",
"m  c #251C4A",
"M  c #271A56",
"N  c #2B2543",
"B  c #2B2647",
"V  c #2C244C",
"C  c #362B46",
"Z  c #332C4D",
"A  c #293444",
"S  c #3A3544",
"D  c #3C324B",
"F  c #2D2352",
"G  c #2E2557",
"H  c #312554",
"J  c #342C53",
"K  c #352A5B",
"L  c #382B59",
"P  c #373255",
"I  c #3D3354",
"U  c #3B335C",
"Y  c #2D1C65",
"T  c #362B62",
"R  c #3A2D63",
"E  c #372A68",
"W  c #372B6F",
"Q  c #3C3264",
"!  c #3E3862",
"~  c #3D326B",
"^  c #3A2A77",
"/  c #443849",
"(  c #4B3C54",
")  c #443758",
"_  c #4A3B5B",
"`  c #523D59",
"'  c #463964",
"]  c #42356C",
"[  c #443B6C",
"{  c #4B3B6C",
"}  c #513E69",
"|  c #412F77",
" . c #423473",
".. c #453A74",
"X. c #4B3C74",
"o. c #43347A",
"O. c #48387B",
"+. c #4A3C7C",
"@. c #523E76",
"#. c #384449",
"$. c #504951",
"%. c #574759",
"&. c #644D5B",
"*. c #68515D",
"=. c #4C436B",
"-. c #574768",
";. c #4D4278",
":. c #53447D",
">. c #594878",
",. c #5E5373",
"<. c #644C67",
"1. c #675466",
"2. c #71586A",
"3. c #634B76",
"4. c #685578",
"5. c #72587A",
"6. c #6C666C",
"7. c #877577",
"8. c #89816F",
"9. c #3E2A83",
"0. c #4C3D83",
"q. c #4C378A",
"w. c #4B3989",
"e. c #4A3692",
"r. c #533D96",
"t. c #583DA4",
"y. c #534483",
"u. c #5A4B83",
"i. c #58478A",
"p. c #56498E",
"a. c #5E5288",
"s. c #574595",
"d. c #5B4B93",
"f. c #5D4B9A",
"g. c #644C88",
"h. c #695587",
"j. c #745B86",
"k. c #644D98",
"l. c #685695",
"z. c #64529B",
"x. c #6A539C",
"c. c #745B99",
"v. c #786488",
"b. c #6D6295",
"n. c #786498",
"m. c #5D47A4",
"M. c #624EA4",
"N. c #644CAB",
"B. c #6552A4",
"V. c #6B55A3",
"C. c #6A55AA",
"Z. c #6C59AA",
"A. c #735AA5",
"S. c #735CAC",
"D. c #6448B6",
"F. c #6C56B3",
"G. c #735CB3",
"H. c #755DBA",
"J. c #7669A3",
"K. c #7965A9",
"L. c #7B63B4",
"P. c #7865B9",
"I. c #7B64BC",
"U. c #7456CA",
"Y. c #7B64C3",
"T. c #7C65C5",
"R. c #7F61D0",
"E. c #7E60E2",
"W. c #866D98",
"Q. c #846BA7",
"!. c #8A73A4",
"~. c #836BB4",
"^. c #836BBC",
"/. c #8A75BA",
"(. c #9479B7",
"). c #815EDB",
"_. c #836BC4",
"`. c #8569C8",
"'. c #846CCB",
"]. c #8974C5",
"[. c #8B73CC",
"{. c #957AC8",
"}. c #937CCB",
"|. c #876BD4",
" X c #916ED4",
".X c #8C73D3",
"XX c #8D74D8",
"oX c #957AD6",
"OX c #9275DB",
"+X c #957BDB",
"@X c #8E6DE5",
"#X c #9779E6",
"$X c #9A7DE3",
"%X c #9B79F2",
"&X c #A27EF7",
"*X c #9B9284",
"=X c #D1C9B8",
"-X c #9884C8",
";X c #9B84D8",
":X c #A489D8",
">X c #A690D2",
",X c #B5A5D9",
"<X c #9D82E4",
"1X c #9C82E9",
"2X c #A68AE7",
"3X c #A284EB",
"4X c #AB93E7",
"5X c #B499EC",
"6X c #A888F6",
"7X c #AA8CF4",
"8X c #B28EFA",
"9X c #AE92F4",
"0X c #AF93FA",
"qX c #B598F5",
"wX c #B494FC",
"eX c #BB9CFD",
"rX c #BAA3E8",
"tX c #BCA2F8",
"yX c #C4B6DD",
"uX c #C19EF9",
"iX c #C9B9E7",
"pX c #C4A9F6",
"aX c #CBADF5",
"sX c #C3A4FE",
"dX c #C6ABFD",
"fX c #CAACFE",
"gX c #CAB5F7",
"hX c #CDB3FD",
"jX c #D2B4FE",
"kX c #D5BBFE",
"lX c #DABDFF",
"zX c #D9C6FB",
"xX c #DCC3FE",
"cX c #DED0FA",
"vX c #E1C5FF",
"bX c #E4CCFE",
"nX c #EACDFF",
"mX c #E4D4FE",
"MX c #ECD4FF",
"NX c #E6DBFC",
"BX c #ECDBFE",
"VX c #F2D6FF",
"CX c #F3DCFF",
"ZX c #EDE1FD",
"AX c #F4E4FF",
"SX c #FAE5FF",
"DX c #F5EBFF",
"FX c #FBECFF",
"GX c #F7F2FF",
"HX c #FDF4FF",
"JX c #FFFEFF",
/* pixels */
"& o X o = + . . X X   . t N N Z X.[ U B h U N 7 y N d i i N b q w q q 7 7 2 * * % % * * * 2 8 8 g h h h f h j j f 8 8 a a a f 8 5 8 5 = t t s k = . s s X + X X X ",
"o X X & * X . . . X + 8 g g g [ :.[ Z Z { Q u u u b N m m K F b b b w q 6 , , * 2 2 * 2 2 7 y y g N B C D D I D D h y 8 3 5 8 t = 3 h k - t 5 s = . & = = a a = & ",
"o o = & * X . X . X g h g g U [ g V ;.z.y.U U X.] K K H H R R G F b u e w w 7 6 6 3 3 7 w y g V J J U Q ' { =.' ' ) Z N h y t 8 8 3 a l s - k s & . k $.& 5 A S k ",
"- & & * * * X . X 8 B g g P P w u [ y.X.K K R ] ] O.O.O.+.+.+.R L H F m N r q 7 7 w w w g B J U [ X.;.:.u.u.u.u.:.{ ' P Z C h A f f f s $.8.7.&.5 . z 6.= X a f p ",
"o = & * * * X   3 N h g J J 7 y ] [ Q K L K E ~  .O.q.s.Y.2XB.] ] R L V b e w q 7 7 7 u B U ] X.y.z.S.A.A.A.K.x.l.i.u.;.Q U Z B A f S S l *X=X*X$.% k s & X 4 f f ",
"* = & & = +   * B N J B P w w X.L V K K R  .o.0.r.M.m.r.F.kX4Xq.o.| T H m m b H ] ;.b.l.[ [ ;.d.V.P._.].].].].I.L.K.x.d.;.[ { P B S $.j d k l $.S h s t 5 X a #.#.",
"4 = o & & . + B P P g P g 7 ] K u F T ~ o.w.r.N..XF.m.N.D.pXHX2Xe.^ ^ E K n z.rXQ.K./.A.z.d.z.S._..X+X<X3X2X3X<X+X].^.G.B.d.y.{ J I I y y k 1.%.& f a s #.& a #.k ",
"4 = X & X X y P P u N B y X.Q r F K ~ o.w.m.H.$X|.oX;X#X#X5XJXJX,X9.| E ^ ~  .d.K H U ..y.x.P..X+X3X9XeXtXtXeXqXwX7X<X.X_.G.z.i.:.U U A t t l 5 o t f k l o & p k ",
"4 a = & . 8 B g w 8 Z 7 J i.b b K ~  .q.N.R.OX#X4XvXMXbX6X%XDXNXbXF.^ ^ Y M v b ..[ [ d.B.L.[.1XeXbXbXjXkXkXjXjXfXsXeX7X;X[.I.V.x.;.' P N q 8 2 * = f S l & & p $.",
"* p a + + N B y * N B B X.V u H T ~ q.m.H.|.3XxXVXnXHXHXwX@XcXmXtX,Xe.^ q.o.K V ../.J.Z.P._.<XeXsXAXFXMXVXnXMXnXvXlXkXsX8X9X<XI.C.d.;.X.J N g 7 2 % #.6.z - o p k ",
"% = * X 2 J P w w Z ! ;.[ U ~ T  .s.s.N.F.OXxXSXHXJXJXJXNX%XeXAXqXzXF.B.q.s.;.V K u.Z.:XzX:XqXxXkXDXJXHXHXSXSXCXVXMXnXbXZXAXpX+X_.V.d.y.! J N y 3 * 5 f z k o p l ",
"+ +   3 J ;.N 3 P ! i.Z.k.p.d.d.f.r.s.N.|.MXHXJXJXJXJXJXHX8X8XhXBXmXU._.;X[.k.G ~ R O.V.>XgXdXMXHXHXJXJXJXJXHXHXHXFXHXHXHXAXkXwX$X_.Z.k.+.Q Z g 8 3 * $ k z % 3 k ",
". . X B U Q y J Q :.z.d.i...;.] o.w.m.D.qXJXJXJXJXJXHXHXBXeX%X3XJXkX`.].tXkXrXrXrX,X/.S.'.#XsXAXJXJXJXJXJXJXJXJXJXJXJXHXCXAXxXsX9X+X'.Z.s.y.U Z u 8 8 3 t z & 5 f ",
". X y N ' I ! Q B ;.U Z Z F G K ^ w.m.R.mXJXJXJXJXCXxXkXnXdX%X#XBXMXZXgX2X}.}.rX-X>XbXmXzXtXtXjXMXHXJXJXJXJXJXJXJXJXJXJXJXJXFXnXsX7X+XY.B.f.y.U B y w h z s & a a ",
". k j Z =.=.a.B h P g u r m F T | e.m.#XNXJXJXJXCXfXwXkX8XqXpX7XFXzXgXF.e.m.s.C.I.Z.I.:XgXBXDXBXMXCXHXJXJXJXJXJXJXJXJXJXJXJXFXnXkXeX6XOXY.B.f.p.P B u ( / % + p a ",
"& l l -.=.a.a.g f Z r q r b G ~ q.f.F.6XxXHXdXeXsXeXdXfX&XNXzXBXHXR.U..X;X9X2X4X4X2X}..X.X1XdXAXHXHXHXJXJXJXJXJXJXJXJXJXJXJXJXAXvXfXeX6X.XP.d.S.i.Z B / f + + * p ",
"k $.l / 4.K.a.j D D 6 r b F Q +.r.m.+XwXzXHX&X%X8X8XhXwXmXDXmXJXmX2XgX9X+XN.B.f.o.y.S.2XtXtXeXdXvXFXJXHXJXJXJXJXJXJXJXJXJXJXJXJXCXlXdXwX3X.XS.V.I...Z Z g & * % 3 ",
"S l f S b.K.>.I ) Z w r V ! X.0.q.Y.3X#XmXgX%X6X6XeXtXNXJXkXHXgX@XNXAX'.<XF.o.W ~ ~ +.s.I.4XxXNXBXnXAXJXHXJXJXJXJXJXJXJXJXJXJXJXJXnXkXdXqX$X_.V.^.V.U U g 3 * = 5 ",
"f 2 a -.c.l.l.) C j C B U ;.+.w.m.+XOX9XDX7X6X6X6XeXkXJXxXbXzXE.pXBXpXH.4X;X0.~ T ~  .z.P.I.#XZXJXAXMXAXJXHXJXJXJXJXJXJXJXJXJXJXJXSXnXlXsX9X$XL.P.].u.' Z y = a 5 ",
"* $ j 4.=.>.a.) C C I U X.i.y.m.2X9X6XNXFXeX6X&XsXjXNXAXdXAXdXwXHXHXhXXXI.I.^ G V K d.p.B.oX1XbXJXHXSXSXSXJXJXHXJXJXJXJXJXJXJXJXJXHXCXbXkXeX7X.XL.oXS.;._ g 8 3 t ",
"+ 2 %.$./ =./ _ D D ' ~ i.s.M.Y.+X@XpXHXhX6X6X6XhXhXJXdXfXhX1XxXmXzXtX<XF.w.~ T T ~ ;.s.[.+XqXBXHXHXJXSXCXJXJXJXJXJXJXJXJXJXJXJXJXJXHXVXxXdXwX+X_..X_.y.=.N 8 8 a ",
"2 a %.l ( / / >.I ' ;.;.x.C.Y.+X$X6XmXmX8XwX6XkXjXNXmX0XtX#X|.hX4XY.f.s.W m m n b G Q ..Z.I.+X9XtXMXHXBXlXvXAXFXHXJXJXJXJXJXJXJXJXJXJXHXMXlXeX3XoXP.I.d.u.;.N a 3 ",
"j / $.l / S -.>._ :.y.z.~._.$XwXwXfXAXlXsXeXeXBXdXmXqX6XOXT..XT.w.Y M v v 9 < < 1 e V m Q O.s.C.H.2XeXfXjXsXjXMXFXHXHXJXJXJXJXJXJXJXJXJXHXVXdX9X+XL.d.p.[ =.=.N 5 ",
"S %.z S / / -.h.:.u.k.^.{.$XwXlXbXNXJXMXxXkXMXxX%XXXXXR.|.F.w.^ Y M M c 9 < < > > 1 1 r V Q O.y.f.B.Y.2XfXeXtXjXVXFXHXHXJXJXJXJXJXJXJXJXHXFXlX9X<XI.z.d.U I ' U C ",
"_ / / / j l -.a.>.g.L.oX2XqXkXBXHXJXHXFXCXDXHXdX@X|.$XT.M.w.W M M v c 9 < < : : : : > 0 r b T ..0.s.B.H.XX1X0XsXjXMXJXJXHXJXJXJXJXJXJXJXHXFXxXeX9X[.[.P.:.' D U U ",
"_ l j / S ) -.>.l.A.{.;XqXlXbXMXJXJXJXJXJXHXJXhX#XOXXXC.s.w.W G F n b e 9 1 1 > , 1 , 1 q b V Q ..0.s.k.H.|.$XwXsXlXDXJXHXHXJXJXJXJXJXJXJXHXMXjXfXqX3X.Xl.=.( f ' ",
"( l S / / =.,.l.^./.}.2XsXkXnXCXHXJXJXHXJXJXHXsX%XOXT.f.s.w. .K F m e 0 1 , > , , > , , 6 e b V K ] +.i.M.G.'.1XwXdXMXHXJXJXHXJXJXJXJXJXJXHXMXhXpX3XoX;X].>._ d B ",
"( / / ( ( >.c.A.K./.:XeXjXxXMXCXJXJXJXJXJXJXAXeX6X#XY.M.p. .G m b e 1 : @ # # @ $ O O @ > , 0 r V K Q +.s.f.G..X7XkXMXHXJXJXHXHXJXJXJXJXFXMXhXtX9X_.K.].;Xh.-./ g ",
"$./ / ( %.>.c.J.K.{.4XdXjXnXCXFXJXJXJXJXJXJXmXeXwX#XY.M.0.~ F b e > @ O O . . . , , O . O O # , q b V R ;.i.f.I.3XsXsXlXHXJXJXHXJXJXJXHXVXxXjXjX3X^.c.K.;Xn.%.( h ",
"%./ ( ` %.>.J.~.~.}.qXjXkXMXSXHXJXJXJXJXJXJXvXsXwX#XY.M.0.~ G e 1 @ O O . . . O , , + . . O O @ > 6 r b K ..y.Z.'.3XeXdXlXBXHXHXFXJXJXFXbXhXxXxX+X^.c.J.}./.,.%.B ",
"$./ %.%.-.h.~./.~.:XhXfXlXMXFXHXJXJXJXJXHXHXlXsX6XOXI.f.O.R m q , O O . . . O # + + $ .   . . O O # 1 r N K ..z.Z._.7XsXxXxXMXFXCXHXJXHXlXjXjXeX.X~.c.c.Q./.4.-./ ",
"%.( %.%.<.>./.~.~.:XfXfXkXVXHXJXJXJXJXJXHXHXkXeX6XXXH.s...K b 7 $ O . . . . O O O O O . .     . . O # 6 r N Q y.d.Z.[.qXAXzXhXBXSXbXDXHXkXkXtX$X].K.l.h.n.Q.j.<.-.",
"%.$.%.<.-.>.}.K.^.5XdXkXkXVXJXJXJXJXJXJXJXFXdXwX$X'.C.y.] F u 1 # O .       . . . . . . . .       . O # 7 u H Q ;.d.Z.<XbXBXMXhXnXBXHXCXlXeX3X[.L.A.l.3.4.n.n.2.-.",
"%.%.%.<.4.j./.J.].5XdXjXMXFXJXJXJXJXJXJXJXxXeX7XOXI.k.+.Q F r , @ .                             . . O O $ 6 u Z ] y.p.G.tXxXbXjXfXzXJXAXtXqX<X_.S.l.h.3.3.j.v.5.<.",
"&.%.&.<.3.n.;X/.}.;XdXhXCXSXJXJXJXJXJXJXBXsXwX$X'.F.s. .K V 0 , O .                             . . O O + , 7 g K ..+.i.}.xXxXxXtXqXDXDX7XsX2XI.x.h.h.3.-.3.j.5.5.",
"%.%.&.<.-./.:XQ.K.;X5XpXMXMXFXJXHXHXJXFXfXwX1XXXI.M.0.~ F u 6 # O .                                 . . . + , w b K ] ..f.tXBX5X4X7XmXGX3XpXpXI.x.g.4.<.<.-.5.&.W.",
"/ / *.%.4.4X!.j.n.].}.4XxXdXhXAXAXDXDXxXwX3XXXY.C.i. .K N q , O .                                     . . O + , q V Q T ~ P.4X2X5XpXnXHX2XrXzX_.k.>.3.<.<.<.5.&.v.",
"/ S %.%.n.-Xv.4.j.K.^.;XdXeXeXfXlXBXbXqX$X.XI.C.s.O.T V r 6 # O .                                     . # O O # , q Z K K 0.P.qX5X5XpXJXrXOXsX+Xi.>.3.<.<.2.j.<.4.",
"$.$.$.$.n./.4.<.h.Q.K./.2X2X4XqXfXdXdX3X_.P.B.s.O.Q F b 7 , O . .                                       O . O # # 1 r V m ..V.2X_.'.3XDXiX.XzXxX/.X.>.-.<.5.W.<.1.",
"%.1.l / n.Q.1.-.h.K.b.K.}.}.[.4XqX$X+XY.Z.f.y...R H b q , # O .                                           . . O , , 6 r b K +.].P.L.3XkXcX:XHXBX:X0.3.3.1.v.W.2.5.",
"1.W.$.%.n.Q.1.%.<.3.h.K.Q.K.~._.oX[.Z.B.i.0. .R H b r 1 # O .                                               . . # , , q e m T B.k.G.$XdXJXgXHXHX:Xg.>.3.2.!.W.2.n.",
"%.v.1.1.v.n.*.$.-.-.4.n.l.n.c.L.K.z.d.+...Q K V b w 1 # O . .                                                 . O , > 6 e b F 0.S.w.G.eXJXrXzXJXzXl.@.3.2.W.!.*.5.",
"X / 6.1.v.n.*./ -.%.4.n.j.h.g.K.k.;.X.Q K V b r q 6 # O . .                                                 . . . $ , , q v m K _.B.F.5XJXgXrXzXMX-X@.h.4.!.!.*.1.",
". S v.1.v.n.&./ h.4.4.j.h.3.>.:.;._ U F N u q 6 , , O O .                                                   . . . # 6 , q b F T d.k.C.4XHXAXrX4XkXtXc.5.5.(.!.*.*.",
"j S S 1.4.W.2.$.,.!.h.=.,.>.=.=.I D J u w 6 , > # O O .                                                     . . . # 1 1 e b F ~ 0.s.C.tXJXNX4X}.5X5X(.j.5.-X!.&.&.",
"5 & X 3 d S d / ( ( h.[ =.,.{ I D U ;.q 6 , # , $ O O .                                                       O O O , 6 e m H ~ i.Z.B.rXJXrX2X4X{.}.:XQ.v.>XW.2.*.",
"3 C 3 X X = & t t $.-.H ' -.' ' I ;.:.1 1 1 , , # O O .                                                       O @ O , q u V K O.x.L.C.4XJX2X+XoX]./.dX-X4.n.!.2.*.",
"l.Z y * + 1./ % z 2.-.K =.,.{ l.X.:.;.> < 1 , # @ . . .                                                       . $ # , w b F R +.k.S.G.5XJX5X XoX{./.pXaX..T W.7.&.",
"N   & j = j * j &.%.=.' >.h.{ u.I.;XU 1 1 1 , : @ O .                                                         . $ # , e b H ~ 0.B.I._.pXHXBX5X;X:X].}.{.R ~ -.%.j ",
"X 5 C d 5 3 / *.%.( ) P =.h.{ g.BX>Xn e e e < : @ O .                                                         . # # , r V K ~ y.G._.+XnXHXJXmX3X:X`._.:X:.R K u q ",
"- a h l 3 t 6.%.$.D b V H h.X.g.FXb.M M n 9 < : @ O O .                                                       . $ , , u V K  .s.G.'.rXCXAXJXHX5X2X}.[.qX-X..L J u ",
"& = s = d %.%.$.$.J M R ..u.X.O.iX~.M M M v 9 < : @ O .                                                       . # # , u F T  .s.G.'.gXdXmXJXJXdX3X:X:X5X4X:X..V B ",
"a 5 * 7 %.( y C -.' T 0.S.V.q.q.f.M.^ Y M M c 9 < : @ . .                                                     . O # , u G T o.f.H.+XxXeXZXJXJXkX8X2X5XpX{.5X>XP u ",
"d U h.%.j S h u R y.O.f.].H.>X-XF.M.r.^ Y M n e 9 : @ O .                                                     . O : 1 u F T o.s.[.xXxXtXHXHXJXvXwX2XjXpX:X4XpX!.Z ",
"j S / d j 7 u m n u.S.M.}.qXFXtXpXBXm.9.^ E M n e 1 : @ . .                                                 . . O > 1 u F T o.s.5XVXeXtXSXAXJXMXwX5XVXhX9X5X:X>Xj.",
"z ; - 5 t y e n K i.H.F.OXNXDXpXkXAXD.e.q.^ T M v q 1 @ O .                                                 . O # , 0 b G ~ o.M.qXmXtXqXHXAXJXBXwXjXHXjXsXqX(.(.W.",
"; ; ; 3 , q b ' X.z.`.F.OXFXHXDXMXnXD.t.e.w.W Y n e 1 > O . .                                             . O @ > 1 q m G o.f.'.2XAXpX7XAXDXJXMXbXHXHXkXdXpX(.!.5.",
"; - % $ 6 C I @.A.`.OXR.9XHXFXJXHXnXU.D.t.e.| E G n q , # O .                                         . . O # > , r b m ~ o.0.F.T.AX5X#XuXAXJXAXFXJXHXpXqX5X~.Q.3.",
"o X % t j ) :.k.A.`.`.3XfXFXHXHXHXHXXXD.D.r.q.o.E G b 0 , O O .                                     . . O # , 6 w b V G  .B.s.e.-XZX+X@X8XVXJXJXFXJXDXqX9X4XK.c.3.",
". & x z ( u.]./.H.`.'.$XhXAXFXFXAXJX5XU.U.N.s.q. .K V e 6 > O O .                                 . . O # , 7 w N F K ~ s.G.F.r.,XNX|.#X%XlXFXHXAXMXxX7X:X4XQ.c.3.",
"8 ; z -.4._ ;X;X2X.X#XeXjXCXFXFXAXJXaX).R.H.N.s.0.~ H b q 1 # O O . .                           . O @ $ 6 q u N F T ~ 0.B.Y.I.m.zXgX|.6X%XeXHXJXmXsXuXoX}.4XQ.j.3.",
"y >.%.( -.>./.qX4X<X7XwXsXVXFXHXHXJXjX@X@X|.H.N.s.O.R F b q , : O O . .                       . O # , 6 w b V K ~ ..0.s.Z.Y.I.R.cX5X@X3X6XlXFXHXHXjX2X[.oX:Xc.h.3.",
"8 =.4./ -.K.].:XoXoX6XsXdXlXMXAXJXJXxX&X%X@X|.H.M.s. .K V r 0 1 : @ O . . .                 . . O $ 6 w b V Q  .0.p.B.F.I.'.T.2XNX5X#X3XjXMXFXHXHXkX+X_.{.Q.h.j.h.",
"p b h.` / } /.5X[.OXwXjXdXjXvXMXHXJXNX8X8X3X#X'.G.M.0.~ G m e 0 1 : @ O O . .             . . O $ 1 q b V Q +.y.f.C.P.'.XXXX|.hXBX7X%XfXxXMXFXJXBXeX[.I.].c.h.4.P ",
"a 3 Z ` ` _ g.4X`..XdXCXMXnXVXCXHXJXAXsXeX8X3XOXT.C.s.O.~ G b e 9 < : @ O O .             . O # , q u V L ..y.f.C.Y..X.XXX9XwXxXbXpXsXnXvXFXFXJXmX XG.S.[.K.h.h.u ",
"t = 7 _ -.} >.V.'.'.qXJXJXnXnXSXJXJXHXvXdXeX8X$X|.H.M.p. .T M b e 9 < : @ O . .         . O # 6 w u b K ] 0.f.C.P.'.#X3XqXfXkXDXnXMXMXnXmXFXnXHXNX_.S.V.~.A.g.n.' ",
"t 3 7 ) { -.g.x.`. X7XHXJXFXFXHXJXJXJXHXlXsXeX6XOXT.F.f.0.W G M v 9 1 < : @ O . . O . O O O , q N V H R O.s.M.H.'.OX6XeXjXlXHXHXSXBXlXqX9XkXAXAXgXG.A.l.g.g.>.' ;.",
"t $ g ' ' } g.x.L.OXqXHXJXHXFXJXJXJXJXJXAXjXeX8X#X|.H.M.p.o.E M n c 9 < : @ @ @ $ 2 $ # # + , 6 u K Q  .y.m.G.'.XX1XqXdXMXHXJXJXJXbXeX1X$XqXbX;X'.~.c.h.3.>.U u K ",
"s $ D _ { } >.k.Z.`.8XAXJXHXFXHXJXJXJXJXJXFXjX8X1X.XH.N.r.w.W Y M v c 9 > > : , 7 7 , 6 6 6 6 w N K ~ O.p.B.H.'.$X8XdXAXJXJXJXJXbXtX9X$X<X9X'.e.m.A.c.g.>.R V 0 7 ",
"5 $ D ` _ >.>.u.V.H.OXeXBXJXJXJXJXJXJXJXJXJXHXkXqXOXU.D.r.q.^ W M n c v 9 1 , , , 6 6 $ $ , , 1 e n G o.s.Z.`.OX9XmXHXJXJXJXJXmXwX6X+X.X.XI.f.w.g.c.g.>.U u H 1 # ",
"* @ ' <.` } >.g.x.G._.OXhXJXJXFXAXDXFXHXHXJXJXJXHXmXkXiXiXyXyX,X;XG.y.T ~ m u e 0 0 w r V U ' :.l.J./.;XoX;XtXhXAXJXJXJXHXHXBXdXeX2X.XI.B.r.d.h.c.l.{ V 0 b q # # ",
"s t =.h.-.} R @.V.L.'.+XeXnXAXSXVXnXlXlXjXkXxXhXhXcXmXJXJXHXxXdX4X;X+X].;XK.z.d.p.a.].}.].].^.}.4XdXjXqX4XgXmXDXJXJXJXZXhXsXsX9X3X.XI.C.x.A.K.x.A.:.V F [ V # % % ",
"k s g -.h.3.{ ~ O.x.I..X$X7XeXhXvXnXvXlXfXeXwXwX1X1X6X4XiXNXAXBXkXzXzXzXgXtXpXgXzXzXkX4X/.L.L.K.^.2XtXjXBXDXHXHXGXAXxXeXwX7X3X+X.X_._.L.S.K.S.L.V.i.i.y.P , + % + ",
"s s 8 g ) -.>.:.+.+.f.Z.I..X$X3X8XwXwXwXwX7X7X3X+X.X.XG.N.G.L.K.K./.-X/./.-X>X-X}.}.].].].].K.K.K.K.L./.-X-X}.;X;X$X$X<X<X+X.X'.Y.^.^.L.K.c.x.l.y.{ P Z N y % % X ",
"k s a Z C B U :.k.x.Z.S.L._..XXX+X<X<X$X$X+X.X[._.P.I.I.L.S.B.M.f.f.s.d.i.i.i.i.u.u.>.=.' D h j C Z U [ y.k.Z.I.`.[..XoX+X+X.X[.T.L.S.V.l.h.>.' ) D D C y 5 5 = % ",
"s s s S h.u.U Z ] y.d.k.S.I.'.[..X+X+X;X.XoX[.Y.L.G.x.k.d.y.:.:.{ ] Q P P U I I D D D D S S D ) _ =.=.>.g.V.L.^.'.[..X.X.X.X'.I.S.z.:.:.=.) ) / ( / C d d a d t t ",
"t 5 t s t y u h V K ] ..y.d.k.V.S.G.I.^.L.^.S.V.A.A.g.y.X.] ' { } { ' _ _ _ _ _ ( ( _ ( ( ) ( %.=.=.=.>.g.l.x.A.S.G.L.L.L.S.V.x.g.>.;.' ) ) _ ) / / / / ) ) ) _ _ ",
"j C C j h C C I ' { @.:.i.k.z.V.A.Z.V.V.x.x.l.l.g.y.@.{ ] Q U L J Z I D C C C j j j j j j j j j j C J ) { X.y.k.x.A.A.A.V.S.A.x.l.u.g.3.-.-.-.{ _ _ _ _ ) / ) ) ) ",
"d j j / -.( ( ) _ } } :.>.u.g.k.V.A.A.x.V.l.i.y.:.{ ' @.' H M T ~ R R T K U U ' ) I Z C C D ) ) ' { X.@.X.+.0.q.r.r.s.k.x.x.g.u.:.{ ) U D I ) D C h d d a t t 5 3 ",
"d d d D ( D D D ) _ { X.u.x.L._._.I.P.A.z.k.g.i.u.g.:.R ] l.-XiXmXNXNXNXZXZXmXxXdX5X;X].T.].[.}.;X;X4XrXiXiXiXiXiXiX,X].L.B.o.T K V N u 7 w g h C h f f d d t 5 3 ",
"j j j S S S D I ) ' { @.i.x.L.^.].{.{.-X;X4X5X5X;Xl.@.k.-X5XiXyX,X>X!.J.J.b.l.u.;.;.=.' U P P P U ! :.a.n.(.4XiXBXHXJXJXJXDXiX>XZ.Q J K B u N C C I D h j f a t 5 "
};
