/* XPM */
static char *door[] = {
/* columns rows colors chars-per-pixel */
"113 113 57 1 ",
"  c black",
". c #100000",
"X c #180000",
"o c #210000",
"O c #290000",
"+ c #310000",
"@ c #310800",
"# c #390800",
"$ c #390808",
"% c #420800",
"& c #4A0800",
"* c #420808",
"= c #421000",
"- c #4A1000",
"; c #4A1008",
": c #521000",
"> c #5A1000",
", c #521008",
"< c #5A1008",
"1 c #730800",
"2 c #7B0800",
"3 c #631000",
"4 c #6B1000",
"5 c #631008",
"6 c #631808",
"7 c #6B1808",
"8 c #731808",
"9 c #7B1808",
"0 c #8C0800",
"q c #8C1000",
"w c #841808",
"e c #941000",
"r c #9C1008",
"t c #9C1808",
"y c #A51800",
"u c #AD1808",
"i c #842108",
"p c #8C2108",
"a c #942108",
"s c #9C2108",
"d c #A52908",
"f c #AD2908",
"g c #B52108",
"h c #BD2108",
"j c #BD2908",
"k c #BD3108",
"l c #C62908",
"z c #CE3108",
"x c #C63908",
"c c #CE3908",
"v c #D63908",
"b c #D64208",
"n c #DE4208",
"m c #D64210",
"M c #DE4210",
"N c #E74A08",
"B c #E74A10",
/* pixels */
"ooooooXoXXXXooOOOOO++++@@@##@@@@###%%%&:::::::::::::&&&%%%%%#####@@@@@OOOO@#@@@OOOO@@##%&&:>349waadfdspaw24<,&,<=",
"ooOOOOOoooooXOO+O+++++++++++%%%%&::>>342889999888888111333>:&&&&%%%%##@@@@#%%#@@OOOOO@##%%&:>349weygfddsapw7<,&,,",
"OO++OOOoOOoooOOO+O++++++%%%%&:>3222qqqqtsssstttttttaeeeww9811333::&&%%%#####%%##@@OOO@###%%&:3422eeyfkkfsapw24<&;",
"+@@@+O++OoooOOO@@@@+#%%%&:>342qqeeyyuuufhhhhhhhhhhffyyyyytaeeew9213>:&&%%%%##%%%##@O@##%%%%%&:312qeasfkkfsapw74<%",
"@###@++++OOOO@@@@+#%%&:>42qeeyyuuughkkllllllllllllljhhhhhhgyyyeeeew8433>:&&%%%%&%%#@####%&%%%&:312wassfkkfdapw24<",
"#%%##@@+OO@@@###%%%:>42qeyyughhhhlllzzzzzvvvvvvvvvvvzzzllljhggguuyeeew21133>:::&&&%##%%%#%&&%%&:312iaasfkkkfsp224",
"%&%###@@@####%%%%:32qetuggghhlzzvvvnnnnnnNNNNNNNNNNNMMnvvvvzlllhhguyeeeeew2143>::&&%#%&&&&%%&&%&:348ppasfkkkfdpq2",
"&&%%#@###%%%%%&:32qyugfhhhllzvvnnnNNnnNBMMMMMMMMMMMMBNNBBBBMnzzlljhgguyyee00w213>::&&&:<:&%#%&&&:<489wppsfkxkfdap",
"&**###%*%%%&&:32quughhklzvvnnnNNNBMMmvccxxxxxlkxlxxxxcvnnnMBBMBvvzlllhhguuy00022143>:&:3<:&%%%&&&,<4899wasfkxkkfa",
"&*#*%%%&&&:>32quguhhllzvnnnNNMMMvcxxlfffffapppppppasdfjkxxxcvnnBNnvvzlllhhuuee0ew283>:::<:&&&&%&&::<4989wsdfkxxkd",
"**%%&&&,:>42qyuhhklzznnNNBnMbxxffapppaii988777777778iippaasdfkxcnnMNnvzzllhhguyeew2843>>:::::&&&&&:33498wpsdfkxxk",
"*;;&;,>>42qyufhklzMMnNNNMvxlffppap97776555<<<,<<,<<56677789wppadllcnnBMnvzlllggyeew288433><3<:&&&&&:<3499wpsdkxxc",
"&;;,>>42qyughklzMNNNNMvxlfapai8775<,---%%%%=========;;;,,<<6678wasdjlcNMnNnvzzlhuteqw98884334<:::&&&:<348wwaskccz",
";;,>42qesghhlzMNNNBncxkapai775<,-=-%%$**%%%%=%%%=%***$#%=;;;;:<579wpsflcMMMBnvvzhgyeeqw9984483<<:::::<<3899wsfkcc",
";,>42qsughklzMNBBMccfpaw76<,;=%#$$%=;;<<<<,,,<<,<<<<,,;=%*$$#=;;,5679ppfkzNBnMnvzlgyyeeeeq989843<<<::<<<4899wskcx",
",42qeughhlzMnNBMccfpai76<,-%#*%=;,<<,,;;;;;&&&&%&&&&;,,<<,,;%*$#=;,<679psfkcnBNnvzlggyyeeeq9wq98433<<:<<44899afkx",
"42qyughlzvnNBnmckppw76<;%%#%=,,<,;;**###@@#@@@######%%&&;,,<,,*%*#%;<5579pdjkcMnnvzljguyyreqqeq98455<<:<<4489pskc",
"2euuuhlvnnBBMzjdw875,-%#%;,,,,;*$@@@@OOOOOOOOOOOOO@@@@@##%%&;;<<,;*$#%;<67wadjzvnNnvzlguyreeeqeeq98455<<<3448wtfk",
"euhlhzvnNBnvzfa876<-%#%;,<;*$#@@+OOooooooooOooooooOOOO@@@@@##%&&,<,;*$%%&>58wsfkcnnnvzlhggyreeeeeq98455<<<3449psk",
"uhllvvnNNMcfsp86,-%*%,<,;*@@+OOooooooooooooooooooOoooOOOO+@@@@##%&;,<,*$%%:<79pdkcnnMvzlhggyreeeqqq8145<<<3348wsh",
"hllvvnBnclfai7<-%#%,,,;$#++OOoooXooooooooooooooooooOOOOOOOO+@@@@##%&;<,;$$%&:38pdjznnMvzlhgyrreeww9q8145<<<3489ps",
"lzvnNBMzfap7<,%#%,<,%#@+OoooXXooooooooooooooOOOOO++@@@@@@@@@@@@@@@@#%&;<,*$$%:38psfknBBvzhhgyrreeqqw98145<<<348wp",
"zvnNBMxfp97<&=#=,,%#@+OoooXXooooXooooooOOO+@@@@@@@@#@@@@@@@@@@@@@@@###&;<<;*$%&>49adknBBvzlhgyrreeqqw98445<<338ww",
"vnNNmcfa86<&#=,,&#@+ooooXXXXXXXooooOOO@@@####%&&&&&&%**$$####@@@@@@@@##$&,<,*$#&349pdknBBvzlhhgyreqwqw8145<<<348w",
"nNNmcfa86<&*;<,%%+ooooXXXXXXXoooooO@@@##&&;,,,<<<<<<<<,,,;;*%####@@@@###$&,<,*$%&:78pfknnBvzlhhuureqwq98445<<<48w",
"NNvkfp7<&%%,,&%++oXXXXXXXXXoooooO@##&&,<<,,;;;;;;;;;;;;;,,<<,,;*%####@###$*&,<;$*%:69pfkcnnvzlhgureewqw91455<<448",
"Mvkfp7<&#%,,&#+oXX...XXXXooooOO@#%&,<<;;%*$$$$$##*%%%%%%%%&&;,<<,;%$$#####$*;<<;$#&34wpfznnMvzlhgyreqwqw84453<348",
"vlfp7<&#-<,%@oXX.....XXXooooO@#&;<<;;$$$%%%%%,,,,,,,;;;;=====%&;,<,;%%$#####*;,<*$%&339skznnnzlhgyreewqw981433348",
"lfp7<&#;<,%@oX.......XXoooO@#&;<,*$$##%;,<<55566555<<<::;;;;%==%&;,:,;%*$##$#*;<,*$%&>7afkcnnvzlhgyreqwqw81443348",
"fp7<&%;<&#@oX...XXX.XoXoO@#&;<,*$#%%;<567882222228884445>>::&&&%%%&;,:,;*$$$$#*;<,**%&>7adkcnMzlhguueewww92144334",
"a6<&#;<&@@oX.XXXXoXXXXoO@%&<,*$$%&,<678wwwwwiiiiiww922284445>::&&%%%&;::,;*$$$%*;<;%#%&3wakcvMvzlhgyeeqwqw2844634",
"8<&#=<;@@oXXXXoooXXXoOO@%,<**$%&<5689ipppapaapapaappiii9288443>::&%%%%&;:,;**$$%;,<;*#%:4pfkcBMzllhuyeeww99844634",
"<&#=<;@@oXXoooOooX.Xo@#&,,*$%;<679ipttdddddddddddttaappp99922843>::&%%%%&:<,;***%;,,*##&>8pfzNMvzlhhuueeww9214434",
",#=,;$@oXXooO+OOo.Xo@%;<;**%<678pttddddddddddddddddttaaappii921433>:&%%%%&&:,;**%&,<,##%&5wakcBvzllhuyeeww9284634",
"##,,#+oXXoO++#+OoXo@%,<*$%;<58pttdffhfhfffdddddddddddttaaapii992443>:&&%%%&&::;**%;,<*##%:7pdzMMvzlhhuueew9924664",
"#,,#@OXoO+#%##+ooO@%;<*$%<57witdffhfhhfffddddddddttttttttapppii92143>:&&%%%%&::&;*;,<,%##&39ajcBvzllhgueew9924664",
"-,#@OooO+#%%#+OoO+%,,*$%<68ptddffhhhhffddddtttataaaaaaaaaatappii92143>:&&%%%%&::&;;;,<;##%:7pdknvzzlhhuueew924464",
"<-@OoO+#%%%#+OoO+%;,*$&<58itdfkhhhfffddddttaaappppipiippppppappii9214>>:&&%%%%&:::;;,:,##%&59ajMnvzlhhgyeew921464",
"-#+OO+#%%%##+OO+%;,*%&<7waffkkkhhhfdddddtaaaappiiiiiiiipiiipppppii92133>:&&%%%%&:::;;<<;#$&67idznvzllhhueew921444",
"#@OO+#%%%%#++O+%&<*#&<79affkkhhhfddddaaaapppiiiiiiiiiiiiiiiiiiippii92143>:&%%%%&&::&,,:&#$%<7pskMvzzlhhgeeew91464",
"@OO+#%%&%##+O+%%<%#%<79afkkklhhffdddaaappiiiiiiii9999999999999iiipii92143>:&%%%%&&:::::&*#%;68ajmNvzlhggueew98436",
"OO+#%%&&%#++++%&*$%<79afkkklkhfddddaappiiiiii99999922222222299999iiii2214>::&%%%%&&::::&*##%58pfcnvzlgugueew91436",
"O+#%%&&%%#+++%%,*%<79afkkkkkffdddaappppiiii999911144444441111129999ii92213>:&&%%%&&:::&&%#$%<7pdznnvzgyuurew91436",
"+#%%&&&%%#++%%%*#,68afkxzlkfddddaapppiiii9991111221114333333444112999i9214>::&%%%%&&::&&%#$%,7psknnMzlgyteew91436",
"##%&&:&%##++%%;$;<7afkxzckffddtaappiiii99911122211443>::&&&:>>34411299i2213>:&%%%%&&::&&%##%,79aknnnzlhuteew92436",
"#%%&::&%#++%%,$%<59fkxxzkkfddttaappiii991119991443>:%%%#####@@#&>3411299214>:&&%%%%&&:&&%$#=;59pkmBnvlhgeeew92436",
"%%&::&&%#++%,=#,68pkxcxkkffdddaappiii92119991143>&%###@X......X@@%:444292213>:&%%%%&&:&&%%#%;58pfcMnvxhhyeew92436",
"%&:::&%%#+%;,$%<7pfkxzzkkfddstpppiii99122291143:%#@@X...      ...O#%>3411213>:&&%#%&&:&&%%#$%58idxnnvxhhyeew98436",
"%:>>:&%#++%<=#;68akxxckkffddtepppii9212299144>&%##O..            .X@#:3411133:&&%#%&&:&%%%#*%<7idknnvxhgueew98436",
"&>>>:&%#++%,$;<7afkxxzkkfdstteppii99222291443&%@@X.                .X@:441143:&&%#%&&&&%%%#%%<7idknnvzhguyew91436",
":>3>:&%#+%,=#;58afxxzzkfddsteepiii9922991443>&#@..                  .X@:44143:&&%#%%&&&%%%#%%<7idxnnvzlguyew91436",
">>3>&&%#+;<%#<7pfkxzzzkdddtteppii9922291143>&%#X.                    .X#>4443:&&%#%%&&&%%%#%;57idxnnvzlguyew91436",
">33>&&%##;,*;<8pfkzzzlkdytttepii9992291143>>&#O.                      .#&3443:&&%#%%%&&%%%#%;57pdknnvzhguyeq946>6",
"33>>&%#+$,=#,6ipkxzzzlfdytttepii9922911433>&%#X.                      .@%>343>&&%##%%&%%%%#%-58idknnvzlgyyew946>6",
"33>:&%#+*<%=<7pfkxxczlfyyrteppi99299914436>&#O.                       .O#&333:&&%##%%&%%%##%&58idkNnvxhgyyew846>6",
"33>:&%#+;<*=<9pfkcvczlfyyrtepii92229114436>%#X.                       .X#&>3>:&&%##%%&%%%#+%&59pfxMMvxhgyyqw846>>",
"33>:&%#@;,*;5idkzcvczkfyrrrepii9222914434>&%#.                         .@%>3>:&&%##%%%%%##+%:69akxnnzzhuytqw84>&>",
"33>:&%%%;;$;6idkcbvczkfyrrrepii9222914336>&%#.                         .@%>>::&&%##%%%%%#+%&:7wskcnnzlhuyrqw84&%>",
"33>>&&%%,-#,7idkbbvczkfyrrrepii92222143>6:&##.                         .@%:>:&&%%#%%%#%##+%&:7pdzvnvzlhuyrq284>&>",
"33>>:&%%,=#,7idxnbvczkfyrrrepii92221443>3:&%#X.                        .@%:>:&&%##%%##%#+#%&:7pdzNnvzlhuyrq27>:>7",
"33>>:&%%<%&<7pdxnbvvckfyrrrepii9222143>>3:&%#O.                       .X#%::&&&%##%%####+%%&>8pfzMMvxlguyrq24>&>7",
"433>:&%%<*&<7pfznbbvckfyrrrepii9222143>:3:&%#@X.                      .@#&::&&%%+#%####+#%&:>9ajcnnvzlguyeq2>&+:9",
"433>::&%<&&<9pfcnnbvclfyrrrepii9222143>:3>&%##O.                     .O#%::&&%%#+###+###%%&:4pdznnvzlhuyre24>:&79",
"443>::&%<&:69pfcnnbvzlfyrrrepii9222143>:3>:&%#@..                   .X@%&:&&%%#+###++++%%&:>9akMNMvzlhuyrq23:%>7w",
"1433>:&&<&:69pfcnnbvzlgyyrrepii9222143>:>>:%&%@X..                  .O#&&&&%%#++##++#+#%%&>4pdkMnnzzlguyeq4>%&:9e",
"1443>:&&,&:59pfcnnvvzlhuyrrepiii922143>:>>:&%%#OX..                .O#%&&&%%#++##+#++#%%&:>8ajcNnvzluuytq2>&%&>9e",
"1143>::&,&,59pfcbnvvzlhfyrrrepii922113>::<:&%%#+@OX.             ..O#%&%%%##+++#+#++#%%&&>49dknnnvxhguye23:%&:7er",
"1143>::&,&,<9pdccnvvzllfyrrrepii922114>::>>:&%%#+@OX...      ....XO#%%%%%##+++#+#++#%%%&:>4pfmMnvzlhuyyq2:%#&39ey",
"11143>:&,&,<7pdxcnvvzllhuyrrrepii928143>:<>:&%%#+++@OXX......XO@@#%%%%%##++++#+#++#%%%&:>49sknnnzxhhuyrq3&#+:39eu",
"11143>:&&&,<7pdxcnnvzllhuyrrrepii988113>::<>:&%##+++++@@@@@@@##%%%%%###+++++#+#++#%%%&:>48ajMMnvzlhgyye2:%+#:7eyu",
"111443>:&&,,7idkcbnvzllhuyrrrepiii98114>:::<:&%%##++++##############+++++++#+#++#%%%&:>48pdznnvzxhguytq4&+O:59euu",
"111443>:&&,,6idkcbnvzzlhhurrrtepii988113>&::>:&%%##+++++########+++++++++#+++++#%%%&:>44psknnMvxlhuyyrq>%O&>9eyuh",
"111143>::&,,6idkzbnvzzllhuyrrrapiii98814>:&::>:&%%##+++++++++++++++++++#+++++##%%%&::>49skMnMvzlgguytq2&o#:9eruuh",
"1111443>:,,,69dfzcnnzzllhhurrrsapiii98114>:&::<:&%%###+++++++++++++++++++++##%%%&&:>448afMMMvzzghuyyrq3%o:7qruugu",
"1121143>>,,,68pfkcbnvzzlhhuyeresapiii99114>:&::::&%%%###++++++++++++++++##%%%%%&&:>449afcMMvvzluuuyrq2>%:39eyuguh",
"12211443>:,,>4idkcbnvzzlhhuuyeetdappii99214>:&&:::&%%%%%##+++++++++#####%%%%&&&&:>349sfxMMvvzluguytqw73>39eeuuhfz",
"22221143>>:,>39dfzbnMzxzhhugyyeetdaapiiw9214>>:&&::&%%%%%%###########%%%%&&&&&&>>38psjxMMMvzluguyteq93379eruugulv",
"22w21143>>::>32pdkbnnvzzlhhugyytttddapiiiw2143>:&&&::&%%%%%%%%%%%%%%%%%&&&&&&&>448wsjcMnvvzluguyteq92379eryughhvv",
"22w221143>>:>31idkcbnvzxlhhhugyytttddappiiw2143>>:&&&:&&&&%%%%%%%%%%&&&&&&&:44449wsjcMnvvzluhuutrqw2799qeyuuhflvn",
"22ww221143>>>34qafkbnnvzxlhhuuugytttddaappww2113>>::&&&&&&&&&&&&&&&&&&&&:&>44429adknnMvzzluguutreq9299eeyuuhylvnB",
"12www221143>>>32pdfcbMvzxlhuhuuguyyttdddaapw921143>>:>:&&&&&&&&&&&&&&:&:>4442ppsjzMnnvzzlugyuteeqw29wqeyuuhglzvnM",
"12wqqw221133>>34qsfjbnMvzxlhuhuuguyyytddddapw99988433>3>>::::&&&:::>>>>444ppasfkznMvvzzluuuyteeqw99weeyuugghvvnmm",
"12w000w22143>>332asjznMMvzzluhguuuguuyttdddsapppppp984333333>>>>>>>>444pqpasfkcnnvvvzlhuuuytreqw9wqeeyuughhlvMMmx",
"12w0ee0w22143>>31qafjcnnvzzzluhgguugguuusdddddsasasawww2222222222wwwpppdssdkcnnvvvzlluhyuytreqw9wqeeyuuhhhzvMMMmk",
"122weee0222143>342wafzcnMvzzlhugguggugugfdssddddddfdddddaaaaaaaaaaapaasdfjkbnnvvzzlhugyuyereqwwqqeeyuuhhhzvnMMmkd",
"122w0eeew2221433442pahlcMvvlclhhguuuuuuuhhhfdsdddddddddddddddddddddddfkkznMMvvzzlluguuyetreqqwqeeeyuughhlvnNMmkds",
"12220eeeqw2211333429pfhlzccllzluuguuuuuuuhhlhhfdddddddddddddddddfjjjjzcnMvvzzzlluhuuuyerreqqqqeryyughhhzvnNMmkfsp",
"4122wetre0w221433418wtfhllclllzluugguyuuuugghlllljjjfffddfffjjjkzzzvvvvvzzzllhuhguuyetrreqqqeeryuughhhkcvnmckfsaw",
"412220rre0w2211444122ptfhlzcclcchuugguyyyuuuughhllzlllzzzzzvvvvvvvvzzzllllhhhgguuyytrreeeeerryuuughghkxcvmxkdsaww",
"41122werreqw221144412wptfhlzcclczjughguyyyyuuuughhhllllllllllllllllllllhhhggguyyyttrreeerrrryuuuggghkxcvvkkdsaww9",
"4112220ereq22221144119wptfhllccllcjughuguyyyyyyuuughhhhhhhhlllllhhhhhhhgguuyyyyttrreeerrrtyuuuggghhkxccxkfsspw992",
"441122w0eqw22w221144129wptguhlzzllllguhguuuyyyyyyyyuuuugghhhhhhhhgguuuuyyyyyyttrreerrrrryuuughuuhkkxxxkkdsapw2929",
"44112220eeqwwwww21144129wptufhlzzzllhguuhuyuuuyyyyyyyyyyyyyyyyyyyyyyyyyyyytttrretrrtttyyuuguuughkkxxxkffspww2229w",
"4411122wqeeeqqwww21144129wptufhhlzzllhguuuggyuuuyyyyyyyyyyyyyyyyyyyyyytttttrrettttyyyuttyyyugghkkxxkkfsspww2111ww",
"4411122wqerreqeqww21144129wptuufhlzzllhguuyuugyyuuuyyyyyyyyyyyyyttttttttetttyyyyyyyuutyyyuughhkkxkkggsap921111192",
"14411222wqerreqeeqw22111129wpetuufhjjjlhguyttyyyyuuuuuyyyyttttttttttttttyyyyyyyyuuuyyyyuughhkkxxkkgfypw2214441129",
"11411222wqqererreeqw22111129wppettuffgjjhguyytttyyyyyyyyyyyyyyyyyyyyyywetuuuuuyyttttttughhkkxxkkgfsaq921433341229",
"211112222wqeeruyrreqw22211122wwppetuddffggguyyteeettttttyyyyyyyyyyyytewqetuyyytttetyugghkkxxkkhffypq921433341229w",
"222122222wqqerruurreqqw22111129wwpetttufffffuyyytteeeettttttttttttttewwwqetttttetyyughkkkxkkhffspeq921433441229w0",
"2222222w2wwqqeryuurrreqww2211129wwppettyuuffffuyyytteeeeeeeetttttteqwwqqqeeeeeetyyuggkhhkkhufsapww921433411229w00",
"w222w2w2w2wqqerrruurreeqqw92211299wwppettyyuffffuyyyttteeeeeeeeeeeqwwwwqwqqqeerryuggggggguyyapqw922144441229ww000",
"2w2w2w2w2wwwqqeerrruureeqqww92222999wwppetttttyyufuuyytttteeeeeqeqwwwwwwwqeeeryyuuuuuuyyyeeeeqw92214441129ww00000",
"w2w2w2w2wwwwwqqeeerrrrreeeqqww9222229wwwweeeeettttyuuuyyytttteqqwwwwwwwqqeerryyyyyyttteeee000w92111111129ww000000",
"ww2w2w2w2wwwwwqqeeeerrreeqqqqqww99222299wwqqqqqeeettttyyyyteqqqwwwwwwqqqerrrrrttteeeeeee00ww922111111299ww000000e",
"w2w2wwwwwwwqqqqqeeeqeeeeeqqqqqqwww9999999wwwqqqqqqeeeetttteqqwwwwwqqqeeeeeeeeeeeeeqqqq00www99211111299ww0000000ee",
"wwwww2wwwwwqwqqqqeeqqqqqqqqqqqqqqwww99999999wwwqqqqqqqeeeqqqqqqeeeeeeqqqqqqqqqqqqqqqwwwww99121111299www000000eeee",
"qwwqwwwwwqwqwqqwqqqqqqqqqqqqqqqqqqqwwww999999wwwwwqqqqqqqqqqqqqqqqqqqwwwwqqwqqqqqqwww0ww991211219999ww000000eee0e",
"qqwqqwqqqwqqqqwwwqqeqqqqqeqqqqqqqqqqqqwwwww99999wwwwqqqqqqqqwwwwwqqwwwwwqwqqwqwqwqqwwww92191921999www000000eee0e0",
"qqqqqqqwwqqqqwwwwqq00eee2wqeqqqqqqqqqqqqqwwwwww9999wwwwqqqqqqqqqwqwqwqwqwqqqqwqwqwwwww99191919999www00000eeee0e0e",
"wwwwwwqqqqqqwqqq00q000w212wwqqqqqqqqqqqqqqqwqwwwww99w9wwwqqwqwqwqwqwqwqwqqwqwqwqwww9ww9191999wwwwwq00qq0eee00e0e0",
"wwwwwwwwwwwqqqwwwwww222112wwwwwwwwwqqqqqwqwqwqwqwwwwwwwwwwwwwqwqwqwqwqqqqwqwqwwwwwww99999w9wwwwq0000qeeee000e0e0e",
"222www2w2222222222221111112w222ww2wwwwwwqqqwqwqwqwqwqwqwwwwwwwwwqqqqqqwqwqwwwwwwww92229ww9wwwq000qqqqqq000e00e0ee",
"1222ww22w2121212211111111122ww221www2wwwwwwqwqwqwqqqwqwqwqqqqqqqwqqqqqqwqwwwwwwww22222wwwwwqqqqqqqqq00000e0eeeeee"
};
