/* XPM */
static char *east[] = {
"8 8 2 1",
". c #E9C46A",
"# c #B89A50",
"########",
"#......#",
"#..##..#",
"#.#..#.#",
"#.#..#.#",
"#..##..#",
"#......#",
"########"
};