/* XPM */
static char *north[] = {
"8 8 2 1",
". c #2A9D8F",
"# c #145A56",
"########",
"#......#",
"#.####.#",
"#.#..#.#",
"#.#..#.#",
"#.####.#",
"#......#",
"########"
};