/* XPM */
static char *west[] = {
/* columns rows colors chars-per-pixel */
"64 64 256 2 ",
"   c None",
".  c #0B0B0B",
"X  c #180A0A",
"o  c #0B170A",
"O  c #1D140B",
"+  c #16180A",
"@  c #0A0A18",
"#  c #180B18",
"$  c #0A1818",
"%  c #141414",
"&  c #1C1413",
"*  c #131B13",
"=  c #13131B",
"-  c #191819",
";  c #270A07",
":  c #27160A",
">  c #36190B",
",  c #250B17",
"<  c #370C17",
"1  c #231313",
"2  c #241B13",
"3  c #291717",
"4  c #361718",
"5  c #340A0B",
"6  c #0B250B",
"7  c #13230B",
"8  c #1A2609",
"9  c #18360B",
"0  c #0B2313",
"q  c #09261A",
"w  c #142314",
"e  c #132B13",
"r  c #1A2C1A",
"t  c #182618",
"y  c #0B3718",
"u  c #173817",
"i  c #272509",
"p  c #35270A",
"a  c #272617",
"s  c #372617",
"d  c #273716",
"f  c #363716",
"g  c #33380D",
"h  c #080B27",
"j  c #170B25",
"k  c #0A1627",
"l  c #131423",
"z  c #131B24",
"x  c #181729",
"c  c #170B37",
"v  c #0B1A37",
"b  c #181736",
"n  c #0B0A34",
"m  c #270927",
"M  c #370A28",
"N  c #271727",
"B  c #371726",
"V  c #280A37",
"C  c #271737",
"Z  c #361736",
"A  c #350B35",
"S  c #092527",
"D  c #172627",
"F  c #163727",
"G  c #0A2735",
"H  c #172637",
"J  c #163736",
"K  c #0D3833",
"L  c #262427",
"P  c #372726",
"I  c #283828",
"U  c #383727",
"Y  c #262737",
"T  c #273738",
"R  c #382C38",
"E  c #4A1A0B",
"W  c #471817",
"Q  c #581619",
"!  c #500E13",
"~  c #6C1814",
"^  c #482517",
"/  c #582417",
"(  c #463519",
")  c #563112",
"_  c #762418",
"`  c #6D2F15",
"'  c #481928",
"]  c #591827",
"[  c #451938",
"{  c #4C0E31",
"}  c #6F1630",
"|  c #492525",
" . c #572723",
".. c #562737",
"X. c #4C332D",
"o. c #762423",
"O. c #6D2B30",
"+. c #194719",
"@. c #165817",
"#. c #114D11",
"$. c #26461A",
"%. c #384617",
"&. c #25591A",
"*. c #2E5311",
"=. c #166F16",
"-. c #2B6F15",
";. c #194726",
":. c #1A5825",
">. c #174638",
",. c #11532E",
"<. c #304F30",
"1. c #156F2B",
"2. c #2C6F2C",
"3. c #4E4C15",
"4. c #6E4C15",
"5. c #506F16",
"6. c #6E6E18",
"7. c #4B5429",
"8. c #704F29",
"9. c #526E2C",
"0. c #73712D",
"q. c #171847",
"w. c #1A1658",
"e. c #10114E",
"r. c #281948",
"t. c #381945",
"y. c #271859",
"u. c #310E4C",
"i. c #172548",
"p. c #193546",
"a. c #172458",
"s. c #123156",
"d. c #252549",
"f. c #232757",
"g. c #372756",
"h. c #2D334C",
"j. c #181969",
"k. c #13186E",
"l. c #30166F",
"z. c #182476",
"x. c #142F6D",
"c. c #232476",
"v. c #302B6D",
"b. c #4F134F",
"n. c #6F194A",
"m. c #532A53",
"M. c #4A196F",
"N. c #642464",
"B. c #154B4D",
"V. c #29544B",
"C. c #166F50",
"Z. c #2C6E52",
"A. c #154C6E",
"S. c #294F70",
"D. c #186E6E",
"F. c #2D7173",
"G. c #534753",
"H. c #5E545E",
"J. c #AB1119",
"K. c #912219",
"L. c #B32C19",
"P. c #921032",
"I. c #9F2222",
"U. c #D31611",
"Y. c #F01613",
"T. c #CD2D16",
"R. c #FB2A06",
"E. c #F9271A",
"W. c #EE2D14",
"Q. c #D41029",
"!. c #F2132F",
"~. c #D52A2A",
"^. c #FB2828",
"/. c #FA3829",
"(. c #F22A2E",
"). c #90562B",
"_. c #A6571D",
"`. c #F44517",
"'. c #D04A25",
"]. c #F24B29",
"[. c #D65E1B",
"{. c #B02A43",
"}. c #9E1B5B",
"|. c #F4224B",
" X c #E71D54",
".X c #ED585D",
"XX c #2B8C17",
"oX c #178C2B",
"OX c #2A8C2A",
"+X c #28B328",
"@X c #1AA61A",
"#X c #5D9A24",
"$X c #29CF16",
"%X c #1AFE1A",
"&X c #12FC12",
"*X c #27FE18",
"=X c #32F613",
"-X c #16CF29",
";X c #2ACC2A",
":X c #18FE27",
">X c #12F630",
",X c #28FC28",
"<X c #35FD35",
"1X c #2FF52F",
"2X c #11D811",
"3X c #4AFF1B",
"4X c #4CCE35",
"5X c #4FF630",
"6X c #71F22D",
"7X c #6BEF17",
"8X c #249A5D",
"9X c #619961",
"0X c #35CE4C",
"qX c #1BFF4A",
"wX c #30F64F",
"eX c #2DF271",
"rX c #17EF6B",
"tX c #4DF64D",
"yX c #5CE35C",
"uX c #99F126",
"iX c #ECFC16",
"pX c #CECA42",
"aX c #321092",
"sX c #192291",
"dX c #1910AD",
"fX c #192CB3",
"gX c #22229F",
"hX c #432AB0",
"jX c #5B1B9E",
"kX c #2B5690",
"lX c #1D57A6",
"zX c #1215D0",
"xX c #2910D4",
"cX c #162DCD",
"vX c #2A2AD5",
"bX c #1317F0",
"nX c #2F13F2",
"mX c #062AFB",
"MX c #1A27F9",
"NX c #142DEE",
"BX c #2828FB",
"VX c #2938FA",
"CX c #2E2AF2",
"ZX c #4B22F4",
"AX c #541DE7",
"SX c #254AD0",
"DX c #1745F4",
"FX c #294BF2",
"GX c #1B5ED6",
"HX c #5D58ED",
"JX c #DC1BDC",
"KX c #E66DE6",
"LX c #BF6ABF",
"PX c #26F199",
"IX c #16FCEC",
"UX c #42CACE",
/* pixels */
"% & . X . O & % 1 X ; 1 & 3 * > > < ! - U.E E 4 - < # 2 a D L D L O q.fXx.B.;.@.:.>X:.@.#.+.y r $ % + 0 e q w + . X $ * * o + o ",
"+ O . X X . 1 O + : & & 3 & 3 5 X ! Q 4 U.Q s ^ i a 4 l m m k a 8 F p.fXx.B.>.;.#.&X;.;.;.u u y 9 e e w $ % # o + + 0 w 0 * + o ",
"% O O . ; O . , , . , , & 1 > : : E E E Y.~ * s s t a a t t i r D Y a.fXz.i.G J F &Xe 8 e e r e e r e q e e 0 7 8 6 0 w 0 0 * * ",
"% & & % & 1 1 $ & 2 1 $ 2 > 2 + > E E / Y.~ > > s s w a a L S L Y H a.fXz.i.H H x :XD D D q t t w q w w w 6 7 7 7 6 7 7 6 6 7 + ",
"+ O : + o + : : O o ; ; 5 1 O > W W 2 ~ Y._ W $ 4 4 M N z L L Y J p.s.fXA.B.>.>.;.:X;.+.+.+.y y u 9 9 6 7 7 + . . + + + o o 7 + ",
"o + O 1 & % @ X 1 2 2 + + : > < W 4 - _ W._ Q 4 @ 3 p p a a S D C r.f.fXA.B.,.:.@.&X@.@.@.+.+.u q $ = t e e 6 6 7 + # % o o w w ",
"o * & 1 1 ; : + * * 1 , > > > > 3 @ 4 K.W._ E ! 4 a S L N , a d I p.a.zXx.B.&.=.1.:X1.1.:.+.u X e u u y q @ * 8 8 w * @ $ 0 0 + ",
"$ o + O & 1 2 2 ; : 2 2 3 , + o - 4 ! K.R._ Q W ^ s p , L F S S * J s.cXc.T &.1.oX:XoX=.@.y q y u 9 + t r r t X 7 e w $ o 6 6 * ",
"o o $ @ % + + # - + O 1 2 2 : > s W Q K.W._ ! ^ ^ s B s p L N T I L f.SXS.a ;.2.oX%XXX1.;.t #.+.r t u 9 * w e 6 . 0 q 0 . 0 q $ ",
"o * % O & & , : 2 , 2 p < 4 p W W / ~ J.E._ ! s P , r D k q F H H u s.cXA.;.Y 2.@X*X@X1.r +.;.r 9 u r w 9 r = e 6 @ q 6 $ 0 0 o ",
"% * O 1 2 ; 2 2 ; a - o w 3 > ^ ! / _ J.W.~ 4 r + L P > P U < I T Y B.cXs.,.p.1.@X,X+X=.F :.9 y #.0 u u & u r & e t * 6 $ 0 7 % ",
"% + , 2 2 1 + . a : 4 s 5 a & a ^ Q _ J.R./ q s M ( s P d x K i T h.Y SXa.B.B.@.+X,X@X:.@.@.D +.r u 9 w y o u t w r X e q 7 e % ",
"O 2 , i # 7 1 2 3 2 + 1 p 4 s < t E _ J.E.^ ^ | ^ | N y m g Z I H B.I SXV.B.1.;.;X*X-X;.=.;.#.;.u y r u - 9 = y * r 8 e 0 w e + ",
"+ a : w + 2 : a o a > s w a ^ ^ s p _ T.E.6  ./ | a I P U L F Y $.d.#.vXV.f.1.H ;X,X-Xq 1.a :.6 ;.8 +.w u t u w y w 9 t 6 w 8 t ",
"& i 2 + a : t ; s : q p 4 a 3 ^ ! a ~ T.E.^ ` Q d B ( P y U P >.x V.Y GX>.V.=.,.$X,X2X:.-.:.#.:.t ;.- +.r y u r u $ u - y w t e ",
"1 a 7 1 i - i s , a 4 i a ! s s / ) ! T.R. .` W f ( P d P f >.P <.p.V.GXS Z.:.oX;X,X>XXX:.=.D @.#.u +.q +.u 0 u t y u O y 7 t e ",
": a 0 : a i < t p < e s < p ^ 3 ) ` > T.E._ ` a  .( a X.$.P U #.h.<.B.vX:.Z.h.oX1X*X>XOXr 1.&.q :.#.r $.u r #.y r u e 8 u t 8 y ",
"1 i a a o s a 5 s a > q ( p W ) f ~ a W.E.K.` U ! u 7.s U <.+.R B.<.v.GXZ.C.V.@X1X,X&X+X,.*.1.@.8 :.&.6 $.+.9 r +.9 @ u 9 t e 9 ",
"3 a i a 3 i d f 2 p d ( 8 ^ y ) a _ ) W.E.I.` 4.X.| 3.<.X.L <.,.<.q F.GXZ.i.8X-X*X,X1X$XOXL =.-.:.a #.&.,.a y $.+.i u +.9 t t u ",
": t f 9 p $ s 9 g d W a ( f ( / / ` 8.`.R.L.3.4.*.) S 7.@.7.>.R :.2.F.FXf.OX0XwX,X%X,X-X+XoXL 1.-.=.&.D $.@.&.+.a 9 +.+.+.8 e +.",
"> 6 f d f g i < q ( %.3.( s Q y 4.3.).`.E.T.$.8.7.7.3.s X.,.9.2.2.V.c.FX8X+X0XwX<X:X=X>X;X+XOX*.r &.1.-.=.@.d r $.@.&.@.+.a e $.",
"< t g %.+.%.*.%.3.9 E ^ d 3.7.5.4.&._.`.^.T.4.4.6.1.9.9.2.7.$.P 7.8X8XUXeX1X>X<X<X>X<X,X=X$X-X+X@XoX&.8 $.&.=.-.-.=.-.@.+.a q $.",
"< a d %.*.*.5.-.-.5.-.-.5.5.5.6.6.5.[.`.E.~.).7.0.#XOX#X#X+X4X4X0XyXeXIXPXwX:X=X      <X>X1X,X&X=X=X2X$X$X@X+X@XoXXX-.@.$.a e $.",
"=X=X&X=X3X*X*X3X3X&X3X3X3X3X7X7X*XuXiXiXiXiXuX3X7X6X5X,X5X5X<XwXtXtXrXIXPXwX<X<X      =X*X%X,X,X:X,X,X,X:X,X*X%X%X*X*X&X*X*X&X&X",
"W ^ d %.3.3.*.-.5.5.5.=.5.6.6.5.6._.[.`.E.E.'.).1.#X#X#X+X4X4X4X0XwXeXUXPXrXwXtX      <X<X,X:X1X1X;X-X;X;X+X@X@XXXXX-.@.$.a a #.",
"W ^ ( +.%.3.3.3.%.d / ~ ` 4.*.4._.[.].].^.^.'._.).2.9.0.6.6.3.L 7.9X9XUXPXeXtXtXtX<X>X<X5X5X$X@X@XXX*.s $.@.-.-.-.-.=.&.%.s s $.",
"Q / ) ) g d ) ~ _ ` 4.3.d ) K.L.'.].].`.^.E.`.[._.).8.R X.8.0.0.6.9.g.FXUX9XyXtX5X<X%X=X4X4X#X7.P &.=.-.-.3.( s <.:.&.*.%.s p %.",
"~ _ ` ` ` ~ / g d ) o.K.L.T.T.W.E./.`./.R.E.].].].~.T._.).).G.b.V.9.0.HXjXH.9X6X7X5X5X1X+XOX^ 5.9.9.7. .3.3.*.$.D U %.3.3.^ ^ ( ",
"J.I.L.L.U.T.T.T.U.Y.W.W.^.E.R./.^.^./.      /.`.R.^.].]./.Y.]..X.X X[.KXLX}.pXuXuXuXuX6X#X] 9.2.&.8 %.7.7./ ` 4.8.o.` 4.` _ _ ` ",
"Y.E.R.E.Y.E.R.Y.E.E.R.E./.E.Y.E./.^.R.      R./.!./.`.^.(.].`.|..X.X(.KXKX.X].pXpXiXiXpX].].[.[.~.[.[.~.'.'.T.T.'.T.U.L.L.L.L.L.",
"~ ~ / < 6 ^ Q _ K.J.L.T.Q.~.W.Y./.E.E.      /.(.W.].~.~.'.{.{._.}.H.H.CXGXH...9XyX7X6X#Xo.0.0. .5.7.P #.I P 3.)  .) )  .) / ^ ( ",
"E s q W  .~ _ o.~ ` ' a / P.L.T.~.W.!.^.R.^./.Y.~.{.I.O.[ U G.n.8.N.H.HXAXZ.Z.9X5XtXyX#X9.2.8 <.<.( 7.| 3.U P +.L f ( ' ( ^ P d ",
"4 - > ' / Q | , P Q _ o.~ | W K.J.T.(.^.^.(.W.Q.I.} T ` O.O.O.G.% S.jXHXHX7.D.V.4XtX4XV.2.:.<.3.X.<.3 ;.s U U s I * I B f P a q ",
"B + ' E ' a 4  .Q ] : | ~ o. .D K.L.(.E.^.E.~.I.....O.n.) d.X.m.G.M.lXZXHX[ F.L 0X5X0XY 2.R *.R #.Y %.P I S I s U i F a P L r D ",
"3 N W | , P W | - ' ] ] S ] o.} P P.~.!.^.(.{.O...O.} R b...b.h.v.G.hXDXFXG.F.B.0X<X0X;.Z.%.<.+.T %.Y d Z f c d N i D i L i S : ",
"& B < N N W P , | E k Q ] P ] o. .} T.!.R.~.I.Y } O.Y ..m.Z g.| v.T hXFXNXkXS.D.0XwX+XV.*.V.L <.Y J T L K 3 T 8 L d j D L L t m ",
"x > B $ B M 2 ' < B ' 4 | Q N O.} Y L.!.^.~.} ` n.R ..b.r m.b.s.v.t.SXZXVXkXh.D.+XwX8X2.h.@.h.T ;.Y 9 T m F Y : G L N D 3 D t m ",
"k B 1 N B $ M 3 B { - ' A E ..B ~ ..I.!.(.~.[ n./ b.m.r b.g.R M.s.S.vXBXFXlXR F.8X,X8XZ.H V.<.H h.F Y Y 9 Y v a H j L G N D D 1 ",
"$ B x 5 N B 4 M Z N ' c ' N { [ ~ } P.Y.(.{.M } d...Z m.g.P l.v.U sXvXDXFXcXS.Z.8XwXoXZ.B.i B.V.D Y p.I N H Y r V G i G V w D b ",
"l 3 x Z j B b Z # B C [ 3 { Z ..W } n.!.E.{.b.} | m.g.b.R v.v.g.l.hXVXVXBXvXkX2.8XeX8X-.V.s.d.u p.p.C D d.p.L j Y H L x b G t z ",
"b N 1 N V V B * Z b Z M B [ t...N } b. X|.K.n.b.N.d.| a.M.l.g.g.gXvXNXnXmXFXGXkX-.rXF.D.V.,.h.w.f.J F d.i.r.$ H i.i.b X b H H S ",
"b C C b 3 x V u.q.Z N B [ q.b.u.{ ~ r. X|.}.n.% b.l.l.M.x.P v.gXxXbXCXVXDXFXGXlXkXqXV.A.S.A.A.T D r.w.a.f.H r H i.q.e.c + G H i.",
"& C C q.r.r.q.C B $ A u.e.b.b.y.b.] ]  X|.N.N.M.M.b.V t.l.sXhXvXNXVXVXmXVXFXDXSXSXPXkXA.;.B.x.x.x.x.x.f.i.8 b e.w.w.e.w.q.G w H ",
"w.q.C N o C r.w.y.l.l.c.l.l.k.M.M.g.n.Q.^.m.N.jXsXhXhXvXvXvXCXMXCXBX      MXMXBXMXIXvXvXcXfXgXsXz.f.i.6 i.a.j.j.z.z.z.z.z.k.j.a.",
"zXzXxXxXxXzXxXxXxXbXnXnXnXbXnXAXZXnXAXJXJXBXAXZXZXMXCXCXBXmXBXBXBXmX      mXBXBXMXIXMXBXMXmXMXBXMXmXMXMXMXmXNXMXNXmXNXNXbXbXbXzX",
"j.k.w.u.u.V = x r.y.y.k.c.aXaXaXdXjXjXJXJXvXAXAXAXnXbXnXnXnXnXMXBXVX      DXDXDXDXIXDXDXDXNXNXcXcXcXcXcXdXdXdXdXsXsXsXz.j.a.q.b ",
"x c e.e.y.y.y.y.w.e.V < B t.y.k.l.M.N.}. XM.r.' [ M.aXgXfXcXvXCXCXnXMXmXVXDXFXFXGXIXGXlXkXS.s.D v w.j.z.z.z.z.k.w.e.b - v q.e.w.",
"C q.e.n x 1 N V u.u.r.r.x j r.t.b.N.n.{.Y...y.j.l.l.l.g.P l.aXfXcXNXMXBXBXVXFXGXlXPXC.:.B.x.z.j.x.p.D G e.w.a.a.q.b X b q.e.e.e.",
"C c # x b c n k - b u.r.Z 4 A b.b.b.} J.|.n.b.u.N i.j.z.l.f.Y sXdXvXBXVXBXCXSXlXD.:XD.D.A.a.S J s.a.w.H t i.e.q.H - x c q.v k @ ",
"x # V C N ; N C V , N C A B B Z b.[ ~ P.|.n.] { g.g.t.C v.c.l.a sXvXbXMXVXvXfXA.C.rXD.B.u i.s.s.x H i.i.c D i.q.v 7 v c v $ k n ",
"- m N 1 m C N , C C # x b n % C V B ] P.!.~ b.b.[ Z u.g.N y.c.j.q.fXNXbXmXcXsX,.D.rXC.B.w.p.9 q.i.H x i.H = v G k $ v v $ z b x ",
"x m 1 x j + h x O m N : A Z 5 C b X [ P.Y.} b.W t.u.N e.w.L y.c.d.aXvXMXMXcXs.A.D.qXC.B.H >.i.G G e.D D b D x b z j v k l v l = ",
"x X x j = x , N m 1 c l N A 4 M Z 3 C } !.} ! t.C x r.A d.y.i k.k.a.xXVXMXfXF x.C.qXC.F p.p.q p.c D b w G n w c z x v $ h k = x ",
"& j = @ x , N # k m N N 1 k 3 B ' ' c ~ !.o.{ C V t.< r.b a.y.d.c.D cXMXNXsXB.k.=.qX1.i.B.D p.8 H S G H z b o v l z j $ h + j = ",
"# j @ j 1 j $ x ; N % N < N # N { ' M ] !.} A N Z B r.- r.: y.k c.r.fXmXNXz.A.a.C.qX1.q.>.q.F v e b 8 v * b - v $ z l k h z j $ ",
"x X j O j $ j 1 j - N m l m B j < { ! { U.} O Z 4 C N u.Y e.r.f.w.x.dXMXNXs.x.F C.&XC.y p.F G D c D k D z k z j $ k * z o z X k ",
"- @ # x . x 1 @ N , h : m = B M - { Q ' Q.] C W Z j Z C c d.- w.Y k.sXMXzXF z.B.C.qX1.B.8 K z H G j H o x D h z * h o l $ = j $ ",
"O @ # % j , $ N X l , # N 3 j B : { ] 3 Q.Q B { * Z V x r.j d.y.j c.z.bXcXK j.B.1.qX1.>.c y J n t H h D S . z k @ k $ # k + j $ ",
"# X # @ O # # O l m . N j ; N N 5 N ] O Q.' W M C 4 b V z C q.b i.z.w.mXcXa.s.B.,.>XC.,.S H F D c S t k l * z j $ z k % k = . l ",
"= = X # - % # j , + , j 3 % B h < = ] M U.B ' , M C C O V q.Y D w.j.i.MXcXj.F B.B.:X,.>.K + S H S - k D 0 z h - $ z h % $ l @ . ",
"% = # X % - = , . , l 3 O , m N 4 3 ] { Q.o ' x M , N C C N j r.a.f.6 bXzXx.K >.B.qX,.+.J G x o D S D $ # k z $ + = l = o = h # ",
"% & @ # # # O = , = , X , 3 l B 3 > ! { Q.N W 4 N Z n N O N d.i.r.q.b MXfXx.s.+.>.>X>.>.F y D D k l $ * k k z @ X $ l z $ + $ # ",
"= % . X # @ # # # 1 O & 3 l N B # ! ! Q Q.B B B z 3 3 x C c q.r.v 8 a.mXfXx.s.p.F &XF K J J S D 7 0 z k h j $ % + $ * $ $ = @ . ",
"= # = = # % @ O X . , , @ m m j , W < ~ U.W 3 B N x C C v C N q - b j.MXgXz.a.i.q.>XD t 6 t D S D D S z z $ * * o $ % $ $ = = $ "
};
